<svg id="svg" version="1.1" viewBox="0 0 300 205.50000000000003" width="300" height="205.50000000000003" xmlns="http://www.w3.org/2000/svg"><svg xmlns="http://www.w3.org/2000/svg"><defs><clipPath id="clip-1"><rect x="0" y="0" transform="scale(0.14648,0.14647)" width="2048" height="1403" fill="none"/></clipPath></defs><g clip-path="url(#clip-1)" fill="none" fill-rule="nonzero" stroke="none" stroke-width="1" stroke-linecap="butt" stroke-linejoin="miter" stroke-miterlimit="10" stroke-dasharray="" stroke-dashoffset="0" font-family="none" font-weight="none" font-size="none" text-anchor="none" style="mix-blend-mode: normal"><path d="M0,115.40766c0.02046,-0.03545 0.04093,-0.07104 0.06139,-0.10663c1.18818,-2.96576 0.60015,-6.82486 1.10316,-9.77949c0.67637,-3.9729 1.99401,-8.05727 3.03774,-11.98403c1.41494,-5.32323 4.19042,-10.62639 6.49994,-15.63411c1.67578,-3.63367 4.89601,-7.51093 7.15099,-10.83789c2.26377,-3.47666 5.40645,-6.10363 8.23271,-9.0669c5.71011,-5.98704 12.84844,-11.52748 20.19287,-15.42114c7.10347,-3.76579 15.40342,-6.67106 23.17427,-8.62807c2.05049,-0.51631 4.49399,-0.48248 6.59839,-0.78011c7.19355,-1.23813 14.2459,-1.05884 21.46421,-0.08774c2.71465,0.3653 4.60605,0.49009 7.44111,1.13281c5.18218,1.1747 10.11006,2.767 15.10195,4.50899c1.10654,0.3861 4.40581,-0.00732 5.73779,0.22264c6.55488,0.21443 13.37285,0.16947 19.92495,0.0665c2.57344,-0.04057 8.96895,0.16361 11.13105,-0.12641c0.93896,-0.80955 1.14551,-1.63228 1.81934,-2.59153c2.75537,-3.91783 9.54492,-4.29675 12.92725,-0.65473c3.25635,3.50771 2.66016,8.8822 -0.32812,12.44967c-1.13086,1.34945 -5.07715,1.80673 -6.93164,1.6793c-2.08301,-0.13534 -4.021,-1.10952 -5.37158,-2.69977c-0.9917,-1.16006 -1.04297,-1.72236 -1.75635,-2.8811c-4.79297,-1.04024 -11.84722,-0.09784 -16.92671,-0.41129c-1.05996,-0.06533 -6.91553,-0.00981 -7.59243,0.31565c-0.32637,0.46974 -0.38555,0.38332 -0.35244,0.82317c0.74312,0.73749 2.75054,1.66978 3.58066,2.33945c1.94297,1.56725 4.29009,3.15061 6.16377,4.70292c1.13892,0.93801 2.23433,1.92757 3.28271,2.96562c0.67529,0.66996 4.51143,4.6395 4.99629,4.74627c4.5835,1.0089 13.21582,0.2821 17.85791,0.13388c3.8877,-0.12421 8.43457,0.25471 11.40381,-0.45992c1.38574,-2.49881 2.53857,-4.37526 5.49463,-5.20122c4.86768,-1.36058 9.95068,0.41495 11.36133,5.64883c0.66504,2.47362 0.31348,5.11055 -0.97412,7.32432c-2.22949,3.85485 -8.79932,4.62822 -12.42041,2.46541c-2.32031,-1.38518 -2.31445,-2.82002 -3.81006,-4.65429c-5.64258,-0.23201 -11.14746,-0.44513 -16.79443,-0.33791c-1.63477,0.03105 -5.46973,-0.14779 -6.92432,0.27097c-0.62695,1.02106 2.00684,3.63323 2.62646,4.39416c4.2085,5.17881 6.48633,11.23571 9.50244,17.05269c1.70361,0.4627 16.77686,0.38024 18.87012,0.07031c0.80127,-0.54077 1.4751,-1.60182 2.00977,-2.414c1.85156,-2.80552 4.93652,-2.89619 7.95703,-2.55842c1.61279,0.1825 2.8623,1.16255 3.83203,2.41298c2.36865,3.05423 2.05811,9.38899 -1.29199,11.66326c-1.73145,1.17617 -3.94189,1.60357 -6.01025,1.181c-3.16113,-0.59394 -4.33301,-2.85078 -6.25342,-4.9777c-2.89893,-0.0085 -5.79639,-0.09565 -8.68945,-0.26131c-1.87061,-0.09843 -3.7207,-0.24446 -5.59424,-0.23509c-1.43262,0.00718 -1.78711,0.36208 -3.03369,0.85378c1.36377,3.62532 2.06689,7.51225 3.20508,11.03636c2.55469,0.71947 8.92969,0.08495 12.04688,0.17943c5.11963,0.15541 10.4165,0.06269 15.55225,0.16727c1.80322,0.24065 2.37305,-1.40144 3.40283,-2.74723c2.02881,-2.65466 5.21338,-4.12055 8.57373,-3.69431c3.71924,0.45846 7.6377,4.92394 6.94629,8.75389c-0.19482,1.07935 -0.63428,2.45692 -0.92432,3.60804c-0.91846,3.63953 -6.05127,4.9153 -9.16846,4.42257c-3.12305,-0.49376 -5.70703,-3.19719 -6.95947,-5.69644c-6.46289,0.05288 -12.92871,0.06826 -19.39307,0.04643c-2.54004,0.00044 -5.73047,-0.09008 -8.23096,0.01684c-0.37939,0.24593 -0.81299,0.54561 -1.20117,0.76268c0.3208,3.08704 0.57275,6.1111 0.59619,9.21674c0.00439,0.51968 0.02637,1.05299 0.08496,1.56901c2.25732,1.04888 2.78027,0.44542 5.17383,0.48541c11.60449,0.27405 23.21338,0.30481 34.81934,0.09242c4.93945,-0.05463 9.89063,-0.39782 14.85352,-0.27976c1.5498,0.03691 5.19287,0.12494 6.55371,-0.31506c0.73389,-0.59541 1.7373,-2.13395 2.31445,-2.96283c2.50488,-3.59061 5.85938,-4.60229 10.1792,-4.17884c5.04932,0.49522 9.0249,6.21539 8.58691,11.13435c-0.07178,0.81175 -0.41309,1.52301 -0.64746,2.28877c-0.6709,2.13366 -0.93311,3.46186 -2.8125,4.87839c-2.25,1.69614 -5.55322,2.69581 -8.37158,2.33344c-2.69092,-0.34597 -4.53516,-1.75092 -6.19775,-3.78249c-1.16016,-1.41917 -1.68018,-3.85411 -3.45996,-3.99766c-4.1543,-0.33527 -8.68359,-0.1869 -12.854,-0.18192l-20.74805,-0.10356c-3.48633,0.00029 -6.97412,0.01772 -10.46045,-0.02373c-5.25146,-0.06269 -11.88428,-0.45465 -17.05225,-0.07851c0.0293,2.82705 -1.47949,7.48676 -1.32275,10.77022c4.00342,0.64784 9.37793,0.10429 13.49561,0.12186c1.7915,0.00762 2.34229,-2.2999 3.19043,-3.20275c5.27637,-5.62481 13.44873,-1.2746 13.32129,6.03786c-0.01758,1.01022 -1.86621,4.93097 -2.69824,5.70669c-3.17432,1.97913 -8.62939,2.06291 -11.00537,-1.26874c-0.7793,-1.09151 -1.11475,-1.96199 -2.21924,-2.68981c-4.59082,-0.09858 -9.18311,-0.15804 -13.77539,-0.1784l-0.1377,0.11381c-0.5874,0.47706 -0.76904,0.57944 -1.4458,0.90637c-0.83203,1.41082 -1.50879,4.37629 -2.12109,6.0424c-0.53174,1.45007 -1.29346,3.02318 -1.76367,4.42638l0.14795,0.06005c2.27344,0.9257 28.74609,0.67524 31.47363,0.19774c2.79346,-3.22238 3.86133,-5.88465 8.82568,-6.20411c5.03467,-0.324 8.18994,3.40796 8.61035,8.19466c0.1084,1.94661 -1.40039,4.73836 -1.95557,6.52825c-0.375,1.20693 -5.61475,2.01399 -6.68701,2.04035c-4.27734,0.10107 -5.72314,-2.37577 -8.22949,-4.99762c-0.80566,-0.84368 -6.7002,-0.81878 -8.48877,-0.84368l-16.88379,-0.15233c-1.97021,-0.00146 -6.26074,-0.10985 -8.0874,0.15526c-0.19336,0.15087 -1.82227,1.33289 -1.86182,1.42664c-1.54395,3.56366 -3.6958,6.68644 -5.71875,9.99524c-0.646,1.05899 -1.3418,1.43542 -1.9541,2.7566c0.59033,0.15819 1.19971,0.32956 1.81055,0.37204c3.65918,0.25633 7.48535,0 11.1665,0.02344c2.89014,0.01904 5.76563,0.30466 8.65576,0.32224c3.35742,0.01904 6.6958,-0.20945 10.04736,-0.23582c3.88623,-0.03076 32.61328,0.33249 33.86572,-0.31052c0.93604,-0.48043 1.72119,-2.07111 2.35547,-2.90307c2.25439,-2.95434 6.24023,-3.89615 9.77344,-3.00414c2.4082,0.59175 4.48242,2.11798 5.76709,4.2389c1.01953,1.71519 1.43115,5.03277 0.76172,6.8417c-1.33301,3.60321 -3.5127,6.20308 -7.42676,6.54436c-5.17236,0.45113 -8.09619,-0.94181 -10.46338,-5.53078c-0.58154,-1.13369 -12.68701,-1.08829 -14.30273,-1.08975l-17.35547,-0.00146l-22.51904,0.00146c-4.16455,0.00146 -8.39795,-0.02197 -12.56104,0.08349c-3.34717,0.08495 -4.61572,1.22743 -6.9082,3.48017c-2.61914,2.57351 -5.41582,5.16313 -8.0915,7.69124c-1.5709,1.44128 -2.81602,0.95939 -4.46206,2.96898c3.29429,1.08096 7.29741,0.71039 10.78257,0.69867l10.63184,0.04394c8.00244,-0.00293 16.00635,-0.03515 24.00732,-0.00439c2.146,0.00732 2.77881,-2.71412 3.87305,-4.13929c2.65137,-3.44795 7.42383,-5.28617 11.66309,-4.04848c2.96045,0.86418 5.48438,2.41239 7.00635,5.18364c1.25098,2.16925 0.98584,4.006 1.58789,6.19283c-0.43799,0.8305 -0.7998,1.72983 -1.15869,2.64821c-2.28223,5.83837 -8.8418,9.01534 -14.64551,6.27339c-1.30664,-0.61811 -2.62207,-1.92025 -3.59912,-2.96752c-0.99609,-1.00919 -1.9541,-3.31173 -3.01465,-3.81706c-0.44238,-0.21238 -2.82568,-0.30906 -3.41016,-0.31491c-11.50342,-0.13475 -23.04199,-0.03222 -34.54395,0.02344c-4.60591,0.00293 -9.21167,0.06298 -13.81611,0.17723c-1.99585,0.04394 -4.5936,-0.03222 -6.56147,0.36911c-1.79883,0.36618 -4.04663,2.63796 -5.76006,3.07005c-5.52422,1.39441 -10.76675,3.60028 -16.36582,4.7618c-1.21729,0.25193 -3.49673,0.14794 -4.40156,0.92277h-22.77539c-0.86411,-0.59468 -4.40215,-0.7763 -5.70293,-0.99308c-1.14946,-0.19627 -2.28926,-0.44674 -3.41558,-0.74994c-3.4248,-0.89787 -7.38208,-2.17511 -10.70757,-3.40547c-1.81465,-0.74261 -3.55649,-1.73716 -5.36426,-2.48709c-6.50654,-2.70094 -13.0062,-6.80215 -18.48149,-11.22707c-10.2394,-8.37819 -18.51438,-18.90366 -24.24085,-30.82939c-2.12959,-4.37218 -3.54936,-7.67659 -4.72771,-12.4463c-0.8221,-3.32784 -2.19641,-6.57571 -2.36892,-10.10524c-0.11288,-2.30957 -0.4098,-4.56758 -0.69735,-6.85518c-0.21086,-1.70054 -0.03403,-2.82149 -0.5055,-4.60756zM85.91602,197.25071c43.0002,0.61225 78.38086,-33.69585 79.08838,-76.69105c0.70752,-42.99491 -33.525,-78.44871 -76.52197,-79.25211c-43.13262,-0.80589 -78.72598,33.55524 -79.43578,76.68592c-0.70982,43.13142 33.73354,78.64498 76.86937,79.25723z" fill="#f56d57"/><path d="M48.53467,65.89344c0.15483,3.99165 -0.39565,8.53008 -0.40591,12.58384c-0.05127,16.52349 -1.04897,33.23637 2.41846,49.50836c0.22661,1.06309 1.64985,5.97327 1.19766,6.55886c-0.88462,0.08627 -1.83179,-0.52481 -2.5418,-1.01608c-3.92944,-2.71383 -7.66187,-5.74331 -11.61519,-8.41993c-2.66455,-1.92596 -4.88672,-3.82072 -7.68428,-5.59903c-3.55166,-2.25757 -7.01382,-5.13311 -10.49839,-7.52323c-0.62344,-0.42755 -3.72598,-2.76978 -3.96709,-3.25841c-1.08749,-2.20425 1.34121,-6.72438 1.904,-9.00069c1.38574,-6.53089 3.92944,-12.25105 7.54175,-17.83954c0.97969,-1.5151 1.92583,-3.40576 2.99414,-4.8343c4.34561,-5.81083 9.43931,-11.16189 15.0895,-15.72229c1.10347,-0.88718 3.46143,-2.77652 4.90723,-2.55183c0.58096,0.09023 0.95684,0.81248 1.27808,1.32645c0.14473,2.49251 0.39214,3.53246 -0.61816,5.78783z" fill="#f56d57"/><path d="M48.53467,65.89344c-0.14209,-0.92512 -0.10239,-4.79358 0.20112,-5.62174l0.41704,-0.1661c0.14473,2.49251 0.39214,3.53246 -0.61816,5.78783z" fill="#fefeff"/><path d="M81.31274,46.7957c2.44146,-0.07075 5.05386,0.00674 7.49912,0.02329c3.65625,0.11732 7.49429,-0.17416 11.09722,0.70717c3.26133,0.79783 6.9293,1.81215 10.17026,2.75352c0.59707,0.17357 0.83335,0.58677 1.02686,1.11773c-0.33516,1.31136 -10.13906,7.76726 -11.80386,9.11787c-2.31152,1.87557 -5.21704,4.66908 -7.60942,6.37123c-6.65288,4.73338 -12.91948,9.85023 -19.19839,15.06199c-1.03638,0.85906 -1.88394,1.90692 -2.97671,2.69186c-1.28423,0.79578 -3.52017,2.9208 -4.70991,4.01201c-2.09736,1.88802 -4.16382,3.80988 -6.19863,5.76513c-1.10229,1.07437 -2.45669,2.58054 -3.66094,3.44311c-0.62256,0.05859 -1.25977,0.191 -1.82109,-0.02344c-0.12949,-0.29221 -0.17446,-0.74686 -0.15513,-1.06588c0.3189,-5.26537 0.25796,-10.51961 0.28623,-15.79391c-0.01699,-6.14698 0.11147,-12.29338 0.38525,-18.43436c0.09756,-2.24014 0.02065,-4.67904 0.36621,-6.88257c0.07017,-0.44776 0.21021,-0.77615 0.53276,-1.09898c2.90493,-2.906 17.95737,-7.00062 22.60752,-7.66077c1.33052,-0.18895 2.81309,-0.09638 4.16265,-0.10502z" fill="#f56d57"/><path d="M14.80767,116.43399c0.11997,-0.00762 0.23994,-0.01304 0.36006,-0.01655c1.91338,-0.04878 11.09956,7.20173 13.50791,8.87722l20.11289,14.01179c1.54014,1.0669 2.98682,2.21846 4.49077,3.25797c1.25039,0.86858 2.77544,1.55026 4.01572,2.40595c3.95684,2.73038 8.02573,5.21601 12.09375,7.76608c1.69219,1.06046 5.66089,2.71266 6.97163,3.97525l-0.07134,0.31784c-1.12354,1.1044 -7.84336,2.86352 -9.60352,3.30148c-3.03516,0.69135 -6.19746,1.62144 -9.2748,2.30986c-2.34375,0.5229 -4.96479,1.87777 -7.44053,2.42411c-2.98989,0.66205 -5.98213,1.55993 -8.95928,2.28789c-2.27534,0.63276 -4.14434,1.49108 -6.47739,1.97737c-1.51978,-1.05753 -2.36646,-2.45194 -3.54521,-3.82145c-4.88335,-5.667 -9.24902,-13.42707 -12.02476,-20.30891c-1.88481,-4.67231 -6.5961,-24.64037 -4.15591,-28.7659z" fill="#f56d57"/><path d="M117.41836,53.76981c2.56011,-0.39972 5.07847,1.748 7.13101,2.97645c12.50566,7.485 22.78608,19.06668 28.75093,32.36281c0.67822,1.51174 2.02295,3.3047 1.9043,5.00904c-0.03662,0.52261 -2.04932,0.02036 -2.43604,0.00996c-8.48584,-1.25072 -16.72368,-3.87638 -25.15898,-5.59464c-1.74082,-0.44674 -3.5751,-0.67055 -5.32222,-1.09693c-3.41821,-0.8343 -6.85151,-1.65484 -10.30034,-2.35204c-2.129,-0.42418 -4.36626,-0.49581 -6.49307,-0.89319c-6.71528,-1.25658 -13.37139,-2.94994 -20.17134,-3.67615c-0.66958,-0.07162 -1.52432,-0.33513 -1.47554,-1.11787c0.82676,-1.36482 4.15679,-3.55971 5.59175,-4.68607l10.97139,-8.61137c3.69829,-2.87378 7.21934,-5.84628 11.11787,-8.47413c2.19434,-1.47907 3.18472,-3.11677 5.89028,-3.85587z" fill="#f56d57"/><path d="M126.19204,123.4037c1.03154,0.00264 1.28657,0.5377 1.74595,1.40994c0.78501,1.49064 1.42837,3.06112 2.20313,4.56055l9.31934,18.35146c0.62578,1.24501 1.41797,2.42264 2.04829,3.63836c1.48096,2.85913 2.94756,5.72998 4.48506,8.55981c0.26543,0.48922 0.51401,1.36219 0.25532,1.83822c-1.43306,2.64382 -3.9271,5.15874 -6.24771,7.05701c-0.74355,0.70892 -1.3002,1.75913 -2.04551,2.45047c-5.50913,5.11773 -11.25161,9.60709 -18.12129,12.79139c-1.66011,0.76898 -3.08481,1.86166 -4.92085,2.6072c-0.84653,0.28562 -1.11621,0.23582 -1.81084,0.43502c-0.87217,0.18016 -2.78994,1.14102 -3.56968,1.24355c-2.05137,0.26804 -8.83945,2.70973 -10.34575,2.32744l-0.12261,-0.32956c0.11851,-1.82065 2.33115,-5.32132 3.09448,-7.07166l9.71426,-22.43216c0.60981,-1.41199 0.87363,-3.07737 1.50791,-4.463c1.72896,-3.77604 3.37808,-7.51108 4.7584,-11.43242c0.59531,-1.60416 1.4543,-3.20393 2.01035,-4.81424c1.63638,-4.73924 2.79492,-9.58204 4.90107,-14.16046c0.39082,-0.84968 0.47856,-1.90941 1.14067,-2.56692z" fill="#f56d57"/><path d="M107.30874,152.81408c0.37002,-0.05273 1.35308,-0.06152 1.7707,-0.07763c-0.63735,1.62437 -1.28555,3.23703 -1.91587,4.86579c-0.88506,2.28643 -2.20811,4.53477 -3.06182,6.83145c-2.33071,6.27046 -5.44966,12.14398 -8.17969,18.2416c-0.84448,1.86312 -2.98081,8.21414 -4.24292,9.1955c-0.7103,0.5522 -4.81172,0.30027 -5.91489,0.26072c-4.31616,-0.15526 -8.89028,-0.62543 -13.12046,-1.557c-1.80498,-0.36471 -3.61758,-1.1293 -5.39751,-1.52331c-5.70981,-1.26405 -10.44448,-3.69548 -15.62842,-6.31733c-1.39556,-0.80413 -12.62622,-7.54184 -11.25308,-8.96554c2.61387,-2.12824 7.10156,-1.98323 10.10669,-3.03929c7.0749,-2.4827 14.26948,-3.94449 21.2877,-6.48577c2.69004,-1.13076 5.38374,-1.61705 8.18657,-2.34941c6.19497,-1.61558 12.35127,-4.12465 18.46772,-6.08591c2.94624,-0.94474 5.84341,-2.47244 8.89526,-2.99388z" fill="#f56d57"/><path d="M114.69448,91.55486c2.90933,-0.07631 8.10864,1.64019 11.16768,2.30825l22.06509,4.96818c2.19434,0.5125 7.22314,1.45256 9.05273,2.26797c0.33252,0.38185 0.72803,1.1126 0.86719,1.61515c3.37793,12.10853 2.8374,25.29994 -1.229,37.18451c-0.60205,1.76074 -0.91992,3.44692 -1.55127,5.14468c-0.45996,1.2415 -1.11914,2.53411 -1.67578,3.70735c-1.36377,2.34941 -1.26416,3.9313 -3.6665,6.20601c-1.41943,-1.2245 -3.43096,-5.72998 -4.3459,-7.58138c-4.63418,-9.49767 -9.47856,-18.89091 -14.52979,-28.17327c-0.76099,-1.4114 -1.34839,-2.9104 -2.12798,-4.32312c-2.42461,-4.39342 -5.24678,-8.47838 -7.71284,-12.82786c-1.3585,-2.39027 -3.00308,-4.608 -4.43569,-6.95419c-0.53438,-0.87532 -2.17646,-2.2479 -2.25952,-3.23571z" fill="#f56d57"/><path d="M231.78809,72.40162c4.19531,-0.75111 8.20898,2.02585 8.98682,6.21627c0.77637,4.19027 -1.97607,8.22161 -6.1626,9.02398c-4.22168,0.80926 -8.29687,-1.97224 -9.08057,-6.19913c-0.78223,-4.22674 2.02441,-8.28357 6.25635,-9.04112z" fill="#f56d57"/><path d="M184.48389,0h7.49707c1.71973,0.77454 6.8335,0.71065 9.32227,1.55329c19.39746,6.5667 29.86084,22.15625 30.06445,42.43147c3.41748,0.86155 5.76855,0.18104 9.04395,0.63012c6.09082,0.83474 12.86572,4.64081 16.99658,9.18525c1.49561,1.64473 2.70996,3.54945 3.83057,5.42839c2.70264,4.44674 4.12354,9.55421 4.10449,14.75792c-0.02051,1.61148 -0.22998,3.28712 -0.0835,4.87561c0.04688,0.51207 1.3374,0.93713 1.76074,1.02281c4.3667,0.88396 8.37158,1.77656 12.21094,4.17123c1.41357,0.88176 3.1875,1.60328 4.56299,2.61789c3.86719,2.59402 8.17383,7.24362 10.56152,11.1985c1.94971,3.18166 3.45557,6.61408 4.47803,10.20264c0.25342,0.91442 0.42773,2.35336 1.16602,2.73595v16.903c-1.05029,-0.17459 -1.15869,1.55495 -1.5293,2.61086c-2.00098,5.71826 -5.32031,11.54696 -9.1875,16.20843c-1.27734,1.53795 -4.31982,3.65887 -5.85498,5.05767c-2.78027,1.98762 -7.34766,3.30294 -10.53076,4.41466c-7.13965,1.74009 -14.9502,1.15273 -22.25391,1.21132l-27.13184,-0.04394c-0.37793,-1.56285 -0.14648,-3.34981 -0.38232,-4.85994c-0.44238,-2.82398 -2.23975,-6.31235 -4.39893,-8.16917c-1.19531,-1.02765 -2.2998,-1.79076 -3.479,-2.90864c-0.07031,-1.26156 -0.41748,-8.63539 0.18604,-9.26508c0.49805,-0.52041 2.16064,-0.55791 2.83008,-0.57637c1.64941,-0.04526 12.68262,-0.31799 13.47363,0.19906c1.31396,0.85964 2.23389,2.76304 3.42334,3.87887c3.04541,2.85972 7.10889,4.01597 11.20166,3.89c1.19824,-0.03691 2.50342,-0.07119 3.6709,-0.35842c2.63672,-0.64916 6.01611,-2.70753 7.86328,-4.70116c3.6123,-3.89615 4.83105,-7.65755 4.61719,-12.92321c-0.17139,-4.21092 -2.18994,-8.11967 -5.27051,-10.94071c-4.33301,-3.97027 -8.46387,-4.06166 -14.00537,-3.80505c-4.73145,0.21912 -7.95117,3.76711 -10.93799,7.02845c-1.32861,0.28943 -7.43408,0.5935 -8.31738,-0.42565c-0.18164,-1.31678 1.41211,-2.73507 1.53516,-3.76535c1.40039,-11.61932 -3.30469,-16.39987 -13.66406,-19.12644c-0.20947,-1.70713 -0.68555,-4.70512 -0.79248,-6.21612c-0.1377,-1.94515 7.52637,-1.33553 8.68945,-1.06295c1.38867,1.65806 2.1958,3.73972 3.51563,5.46179c2.0625,2.69069 5.48584,4.54121 8.8623,4.96496c2.72607,0.34245 6.89355,-1.36746 9.01611,-3.06917c2.99414,-2.39936 4.9248,-6.5738 5.26025,-10.37709c0.20361,-2.31206 -2.28809,-7.28375 -3.75,-8.9859c-2.12256,-2.46966 -4.46777,-3.67146 -7.70508,-3.91651c-4.5542,-0.34479 -7.84863,0.50342 -11.1665,3.786c-0.67529,0.66733 -1.41504,1.35941 -1.94678,2.14889c-0.70312,1.04112 -1.229,2.6551 -2.23828,3.421c-0.86719,0.65883 -21.61084,0.1349 -23.38184,-0.11674c-0.3501,-0.0498 -0.64014,-0.04306 -0.85693,-0.3385c0.44971,-1.39427 4.62012,-4.3653 5.77002,-6.3229c5.60303,-9.53341 -0.5332,-21.53605 -11.62207,-22.11945c-1.74609,-0.09184 -3.89062,-0.01567 -5.59717,0.36823c-0.69434,0.15643 -3.33545,1.21484 -3.64893,1.89901c-0.4248,0.92761 -0.46436,0.95939 -1.50439,1.35428l0.11279,-0.17826c-0.5625,0.14354 -1.06201,0.38083 -1.51904,0.02534c-0.0293,-0.18719 -0.05273,-0.53286 0.07031,-0.69647c6.31348,-8.41788 2.46533,-19.01629 -6.8877,-22.848c-2.20312,-0.90241 -5.76709,-0.96686 -8.16211,-0.54488c-1.20264,0.2118 -3.3208,1.59786 -4.45752,2.18536c-1.12061,0.53199 -3.39258,2.90117 -4.56152,3.0141c-9.323,0.90007 -19.10654,0.16156 -28.51011,0.39606c-1.56943,0.03925 -7.58833,0.03383 -8.24897,-0.61884c-0.37632,-2.04226 3.01714,-5.78886 4.29609,-7.28448c6.13652,-7.17697 15.64629,-8.81673 24.61113,-7.88253c1.61895,0.26204 3.16582,0.94313 4.7083,1.42664c2.12256,0.62836 3.1377,1.63155 4.61133,-0.54546c3.33691,-4.92686 7.71973,-9.10035 13.03125,-11.82924c2.98828,-1.7528 5.56055,-3.30134 8.93848,-4.18476c2.25293,-0.5893 5.62354,-0.8749 7.69043,-1.65768z" fill="#f56d57"/></g></svg></svg>